<mxfile host="app.diagrams.net" modified="2023-10-18T23:17:21.205Z" agent="Mozilla/5.0 (Windows NT 10.0; Win64; x64) AppleWebKit/537.36 (KHTML, like Gecko) Chrome/117.0.0.0 Safari/537.36" etag="KBuHtmBlAFYNAfuxGCVA" version="22.0.4" type="google">
  <diagram name="Página-1" id="n-GZHjyzByH7lEgdRZvD">
    <mxGraphModel grid="1" page="1" gridSize="10" guides="1" tooltips="1" connect="1" arrows="1" fold="1" pageScale="1" pageWidth="827" pageHeight="1169" math="0" shadow="0">
      <root>
        <mxCell id="0" />
        <mxCell id="1" parent="0" />
        <mxCell id="cdgOa0_yRrERlSdneWOD-2" value="&lt;b style=&quot;font-weight:normal;&quot; id=&quot;docs-internal-guid-0df5abd0-7fff-2df8-7c35-c7f737a793a8&quot;&gt;&lt;div dir=&quot;ltr&quot; style=&quot;margin-left:0pt;&quot; align=&quot;left&quot;&gt;&lt;table style=&quot;border:none;border-collapse:collapse;&quot;&gt;&lt;colgroup&gt;&lt;col width=&quot;277&quot;&gt;&lt;col width=&quot;282&quot;&gt;&lt;/colgroup&gt;&lt;tbody&gt;&lt;tr style=&quot;height:39.75pt&quot;&gt;&lt;td colspan=&quot;2&quot; style=&quot;border-left:solid #000000 0.75pt;border-right:solid #000000 0.75pt;border-bottom:solid #000000 0.75pt;border-top:solid #000000 0.75pt;vertical-align:top;padding:5pt 5pt 5pt 5pt;overflow:hidden;overflow-wrap:break-word;&quot;&gt;&lt;p dir=&quot;ltr&quot; style=&quot;line-height:1.44;margin-top:12pt;margin-bottom:0pt;&quot;&gt;&lt;span style=&quot;font-size: 12pt; font-family: Arial, sans-serif; color: rgb(0, 0, 0); background-color: rgb(251, 251, 251); font-weight: 400; font-style: normal; font-variant: normal; text-decoration: none; vertical-align: baseline;&quot;&gt;Cenário Principal: Login&lt;/span&gt;&lt;/p&gt;&lt;/td&gt;&lt;/tr&gt;&lt;tr style=&quot;height:38.5pt&quot;&gt;&lt;td style=&quot;border-left:solid #000000 0.75pt;border-right:solid #000000 0.75pt;border-bottom:solid #000000 0.75pt;border-top:solid #000000 0.75pt;vertical-align:top;padding:5pt 5pt 5pt 5pt;overflow:hidden;overflow-wrap:break-word;&quot;&gt;&lt;p dir=&quot;ltr&quot; style=&quot;line-height:1.44;margin-top:12pt;margin-bottom:0pt;&quot;&gt;&lt;span style=&quot;font-size: 12pt; font-family: Arial, sans-serif; color: rgb(0, 0, 0); background-color: rgb(251, 251, 251); font-weight: 400; font-style: normal; font-variant: normal; text-decoration: none; vertical-align: baseline;&quot;&gt;Sessão do Ator: Usuário&lt;/span&gt;&lt;/p&gt;&lt;/td&gt;&lt;td style=&quot;border-left:solid #000000 0.75pt;border-right:solid #000000 0.75pt;border-bottom:solid #000000 0.75pt;border-top:solid #000000 0.75pt;vertical-align:top;padding:5pt 5pt 5pt 5pt;overflow:hidden;overflow-wrap:break-word;&quot;&gt;&lt;p dir=&quot;ltr&quot; style=&quot;line-height:1.44;margin-top:12pt;margin-bottom:0pt;&quot;&gt;&lt;span style=&quot;font-size: 12pt; font-family: Arial, sans-serif; color: rgb(0, 0, 0); background-color: rgb(251, 251, 251); font-weight: 400; font-style: normal; font-variant: normal; text-decoration: none; vertical-align: baseline;&quot;&gt;Resposta do Sistema&amp;nbsp;&lt;/span&gt;&lt;/p&gt;&lt;/td&gt;&lt;/tr&gt;&lt;tr style=&quot;height:192.75pt&quot;&gt;&lt;td style=&quot;border-left:solid #000000 0.75pt;border-right:solid #000000 0.75pt;border-bottom:solid #000000 0.75pt;border-top:solid #000000 0.75pt;vertical-align:top;padding:5pt 5pt 5pt 5pt;overflow:hidden;overflow-wrap:break-word;&quot;&gt;&lt;p dir=&quot;ltr&quot; style=&quot;line-height:1.44;margin-top:12pt;margin-bottom:0pt;&quot;&gt;&lt;span style=&quot;font-size: 10pt; font-family: Arial, sans-serif; color: rgb(0, 0, 0); background-color: rgb(251, 251, 251); font-weight: 400; font-style: normal; font-variant: normal; text-decoration: none; vertical-align: baseline;&quot;&gt;1. Entrar no sistema, se tiver cadastro&amp;nbsp;&amp;nbsp;&lt;/span&gt;&lt;/p&gt;&lt;p dir=&quot;ltr&quot; style=&quot;line-height:1.44;margin-top:12pt;margin-bottom:0pt;&quot;&gt;&lt;span style=&quot;font-size: 10pt; font-family: Arial, sans-serif; color: rgb(0, 0, 0); background-color: rgb(251, 251, 251); font-weight: 400; font-style: normal; font-variant: normal; text-decoration: none; vertical-align: baseline;&quot;&gt;2. Direcionado para página de cadastro, caso não possua cadastro&lt;/span&gt;&lt;/p&gt;&lt;p dir=&quot;ltr&quot; style=&quot;line-height:1.44;margin-top:12pt;margin-bottom:0pt;&quot;&gt;&lt;span style=&quot;font-size: 10pt; font-family: Arial, sans-serif; color: rgb(0, 0, 0); background-color: rgb(251, 251, 251); font-weight: 400; font-style: normal; font-variant: normal; text-decoration: none; vertical-align: baseline;&quot;&gt;3. Encaminhar para página de recuperar senha&amp;nbsp;&lt;/span&gt;&lt;/p&gt;&lt;/td&gt;&lt;td style=&quot;border-left:solid #000000 0.75pt;border-right:solid #000000 0.75pt;border-bottom:solid #000000 0.75pt;border-top:solid #000000 0.75pt;vertical-align:top;padding:5pt 5pt 5pt 5pt;overflow:hidden;overflow-wrap:break-word;&quot;&gt;&lt;p dir=&quot;ltr&quot; style=&quot;line-height:1.728;margin-top:12pt;margin-bottom:0pt;&quot;&gt;&lt;span style=&quot;font-size: 10pt; font-family: Arial, sans-serif; color: rgb(0, 0, 0); background-color: rgb(251, 251, 251); font-weight: 400; font-style: normal; font-variant: normal; text-decoration: none; vertical-align: baseline;&quot;&gt;1 Clicar na caixa de texto e digitar o email e senha do usuário.&lt;/span&gt;&lt;/p&gt;&lt;p dir=&quot;ltr&quot; style=&quot;line-height:1.728;margin-top:12pt;margin-bottom:0pt;&quot;&gt;&lt;span style=&quot;font-size: 10pt; font-family: Arial, sans-serif; color: rgb(0, 0, 0); background-color: rgb(251, 251, 251); font-weight: 400; font-style: normal; font-variant: normal; text-decoration: none; vertical-align: baseline;&quot;&gt;1.1&amp;nbsp; Encaminhado para página home do sistema.&lt;/span&gt;&lt;/p&gt;&lt;p dir=&quot;ltr&quot; style=&quot;line-height:1.728;margin-top:12pt;margin-bottom:0pt;&quot;&gt;&lt;span style=&quot;font-size: 10pt; font-family: Arial, sans-serif; color: rgb(0, 0, 0); background-color: rgb(251, 251, 251); font-weight: 400; font-style: normal; font-variant: normal; text-decoration: none; vertical-align: baseline;&quot;&gt;2. Conduzido para página onde o usuário digita o email e senha que deseja cadastrar.&amp;nbsp;&lt;/span&gt;&lt;/p&gt;&lt;p dir=&quot;ltr&quot; style=&quot;line-height:1.728;margin-top:0pt;margin-bottom:0pt;padding:12pt 0pt 0pt 0pt;&quot;&gt;&lt;span style=&quot;font-size: 10pt; font-family: Arial, sans-serif; color: rgb(0, 0, 0); background-color: rgb(251, 251, 251); font-weight: 400; font-style: normal; font-variant: normal; text-decoration: none; vertical-align: baseline;&quot;&gt;3. Orientado para uma página de recuperação de senha para digitar um código para poder entrar no sistema novamente.&lt;/span&gt;&lt;/p&gt;&lt;/td&gt;&lt;/tr&gt;&lt;tr style=&quot;height:28.55859375pt&quot;&gt;&lt;td colspan=&quot;2&quot; style=&quot;border-left:solid #000000 0.75pt;border-right:solid #000000 0.75pt;border-bottom:solid #000000 0.75pt;border-top:solid #000000 0.75pt;vertical-align:top;padding:5pt 5pt 5pt 5pt;overflow:hidden;overflow-wrap:break-word;&quot;&gt;&lt;p dir=&quot;ltr&quot; style=&quot;line-height:1.44;margin-top:12pt;margin-bottom:0pt;&quot;&gt;&lt;span style=&quot;font-size: 12pt; font-family: Arial, sans-serif; color: rgb(0, 0, 0); background-color: rgb(251, 251, 251); font-weight: 700; font-style: normal; font-variant: normal; text-decoration: none; vertical-align: baseline;&quot;&gt;Sequência Alternativa 1&lt;/span&gt;&lt;span style=&quot;font-size: 12pt; font-family: Arial, sans-serif; color: rgb(0, 0, 0); background-color: rgb(251, 251, 251); font-weight: 400; font-style: normal; font-variant: normal; text-decoration: none; vertical-align: baseline;&quot;&gt;&amp;nbsp;&lt;/span&gt;&lt;/p&gt;&lt;/td&gt;&lt;/tr&gt;&lt;tr style=&quot;height:63.75pt&quot;&gt;&lt;td colspan=&quot;2&quot; style=&quot;border-left:solid #000000 0.75pt;border-right:solid #000000 0.75pt;border-bottom:solid #000000 0.75pt;border-top:solid #000000 0.75pt;vertical-align:top;padding:5pt 5pt 5pt 5pt;overflow:hidden;overflow-wrap:break-word;&quot;&gt;&lt;p dir=&quot;ltr&quot; style=&quot;line-height:1.44;margin-top:12pt;margin-bottom:0pt;&quot;&gt;&lt;span style=&quot;font-size: 10pt; font-family: Arial, sans-serif; color: rgb(0, 0, 0); background-color: rgb(251, 251, 251); font-weight: 400; font-style: normal; font-variant: normal; text-decoration: none; vertical-align: baseline;&quot;&gt;A1. Se o usuário estiver enfrentando problemas é apresentado uma janela de mensagem&amp;nbsp; o problema ocorrido, ex: Usuário ou senha inválidos, após isso é retornado para digitar novamente o usuário e&amp;nbsp; senha&amp;nbsp;&amp;nbsp;&lt;/span&gt;&lt;/p&gt;&lt;/td&gt;&lt;/tr&gt;&lt;tr style=&quot;height:38.5pt&quot;&gt;&lt;td colspan=&quot;2&quot; style=&quot;border-left:solid #000000 0.75pt;border-right:solid #000000 0.75pt;border-bottom:solid #000000 0.75pt;border-top:solid #000000 0.75pt;vertical-align:top;padding:5pt 5pt 5pt 5pt;overflow:hidden;overflow-wrap:break-word;&quot;&gt;&lt;p dir=&quot;ltr&quot; style=&quot;line-height:1.44;margin-top:12pt;margin-bottom:0pt;&quot;&gt;&lt;span style=&quot;font-size: 12pt; font-family: Arial, sans-serif; color: rgb(0, 0, 0); background-color: rgb(251, 251, 251); font-weight: 700; font-style: normal; font-variant: normal; text-decoration: none; vertical-align: baseline;&quot;&gt;Sequência Alternativa 2&lt;/span&gt;&lt;span style=&quot;font-size: 12pt; font-family: Arial, sans-serif; color: rgb(0, 0, 0); background-color: rgb(251, 251, 251); font-weight: 400; font-style: normal; font-variant: normal; text-decoration: none; vertical-align: baseline;&quot;&gt;&amp;nbsp;&lt;/span&gt;&lt;/p&gt;&lt;/td&gt;&lt;/tr&gt;&lt;tr style=&quot;height:63pt&quot;&gt;&lt;td colspan=&quot;2&quot; style=&quot;border-left:solid #000000 0.75pt;border-right:solid #000000 0.75pt;border-bottom:solid #000000 0.75pt;border-top:solid #000000 0.75pt;vertical-align:top;padding:5pt 5pt 5pt 5pt;overflow:hidden;overflow-wrap:break-word;&quot;&gt;&lt;p dir=&quot;ltr&quot; style=&quot;line-height:1.44;margin-top:12pt;margin-bottom:0pt;&quot;&gt;&lt;span style=&quot;font-size: 10pt; font-family: Arial, sans-serif; color: rgb(0, 0, 0); background-color: rgb(251, 251, 251); font-weight: 400; font-style: normal; font-variant: normal; text-decoration: none; vertical-align: baseline;&quot;&gt;A2.Se o nome de usuário parecido já estiver cadastrado, apresenta uma janela de mensagem , informando que usuário existente, e direciona para ele selecionar outro nome de usuário&lt;/span&gt;&lt;/p&gt;&lt;/td&gt;&lt;/tr&gt;&lt;tr style=&quot;height:38.5pt&quot;&gt;&lt;td colspan=&quot;2&quot; style=&quot;border-left:solid #000000 0.75pt;border-right:solid #000000 0.75pt;border-bottom:solid #000000 0.75pt;border-top:solid #000000 0.75pt;vertical-align:top;padding:5pt 5pt 5pt 5pt;overflow:hidden;overflow-wrap:break-word;&quot;&gt;&lt;p dir=&quot;ltr&quot; style=&quot;line-height:1.44;margin-top:12pt;margin-bottom:0pt;&quot;&gt;&lt;span style=&quot;font-size: 12pt; font-family: Arial, sans-serif; color: rgb(0, 0, 0); background-color: rgb(251, 251, 251); font-weight: 700; font-style: normal; font-variant: normal; text-decoration: none; vertical-align: baseline;&quot;&gt;Sequência Alternativa 3&lt;/span&gt;&lt;span style=&quot;font-size: 12pt; font-family: Arial, sans-serif; color: rgb(0, 0, 0); background-color: rgb(251, 251, 251); font-weight: 400; font-style: normal; font-variant: normal; text-decoration: none; vertical-align: baseline;&quot;&gt;&amp;nbsp;&lt;/span&gt;&lt;/p&gt;&lt;/td&gt;&lt;/tr&gt;&lt;tr style=&quot;height:28.798828125pt&quot;&gt;&lt;td colspan=&quot;2&quot; style=&quot;border-left:solid #000000 0.75pt;border-right:solid #000000 0.75pt;border-bottom:solid #000000 0.75pt;border-top:solid #000000 0.75pt;vertical-align:top;padding:5pt 5pt 5pt 5pt;overflow:hidden;overflow-wrap:break-word;&quot;&gt;&lt;br&gt;&lt;/td&gt;&lt;/tr&gt;&lt;tr style=&quot;height:38.5pt&quot;&gt;&lt;td colspan=&quot;2&quot; style=&quot;border-left:solid #000000 0.75pt;border-right:solid #000000 0.75pt;border-bottom:solid #000000 0.75pt;border-top:solid #000000 0.75pt;vertical-align:top;padding:5pt 5pt 5pt 5pt;overflow:hidden;overflow-wrap:break-word;&quot;&gt;&lt;p dir=&quot;ltr&quot; style=&quot;line-height:1.44;margin-top:12pt;margin-bottom:0pt;&quot;&gt;&lt;span style=&quot;font-size: 12pt; font-family: Arial, sans-serif; color: rgb(0, 0, 0); background-color: rgb(251, 251, 251); font-weight: 700; font-style: normal; font-variant: normal; text-decoration: none; vertical-align: baseline;&quot;&gt;Demais Requisitos&lt;/span&gt;&lt;span style=&quot;font-size: 12pt; font-family: Arial, sans-serif; color: rgb(0, 0, 0); background-color: rgb(251, 251, 251); font-weight: 400; font-style: normal; font-variant: normal; text-decoration: none; vertical-align: baseline;&quot;&gt;&amp;nbsp;&lt;/span&gt;&lt;/p&gt;&lt;/td&gt;&lt;/tr&gt;&lt;tr style=&quot;height:33.75pt&quot;&gt;&lt;td colspan=&quot;2&quot; style=&quot;border-left:solid #000000 0.75pt;border-right:solid #000000 0.75pt;border-bottom:solid #000000 0.75pt;border-top:solid #000000 0.75pt;vertical-align:top;padding:5pt 5pt 5pt 5pt;overflow:hidden;overflow-wrap:break-word;&quot;&gt;&lt;br&gt;&lt;/td&gt;&lt;/tr&gt;&lt;/tbody&gt;&lt;/table&gt;&lt;/div&gt;&lt;br&gt;&lt;/b&gt;" style="text;whiteSpace=wrap;html=1;" vertex="1" parent="1">
          <mxGeometry x="290" y="60" width="560" height="950" as="geometry" />
        </mxCell>
      </root>
    </mxGraphModel>
  </diagram>
</mxfile>
